<?xml version="1.0" encoding="UTF-8"?>
<svg width="128" height="128" viewBox="0 0 128 128" xmlns="http://www.w3.org/2000/svg">
    <path d="M64 0C28.7 0 0 28.7 0 64c0 28.3 18.3 52.3 43.8 60.8 3.2.6 4.4-1.4 4.4-3.1 0-1.5-.1-5.5-.1-10.8-17.8 3.9-21.5-8.6-21.5-8.6-2.9-7.4-7.1-9.4-7.1-9.4-5.8-4 .4-3.8.4-3.8 6.4.5 9.8 6.6 9.8 6.6 5.7 9.8 14.9 7 18.5 5.3.6-4.1 2.2-7 4-8.6-14-1.6-28.7-7-28.7-31.2 0-6.9 2.5-12.5 6.6-16.9-.7-1.6-2.9-8 .6-16.7 0 0 5.4-1.7 17.7 6.5 5.1-1.4 10.6-2.2 16.1-2.2 5.5 0 11 .8 16.1 2.2 12.3-8.2 17.7-6.5 17.7-6.5 3.5 8.7 1.3 15.1.6 16.7 4.1 4.4 6.6 10 6.6 16.9 0 24.2-14.9 29.6-29.1 31.2 2.3 2 4.3 5.9 4.3 11.9 0 8.6-.1 15.5-.1 17.6 0 1.7 1.2 3.7 4.4 3.1C109.7 116.3 128 92.3 128 64c0-35.3-28.7-64-64-64z" 
          fill="#333333"/>
</svg> 