<?xml version="1.0" encoding="UTF-8"?>
<svg width="128" height="128" viewBox="0 0 128 128" xmlns="http://www.w3.org/2000/svg">
    <path d="M116 0H12C5.4 0 0 5.4 0 12v104c0 6.6 5.4 12 12 12h104c6.6 0 12-5.4 12-12V12c0-6.6-5.4-12-12-12zM39.1 108H20.2V47.2h18.9V108zM29.6 38.7c-6.1 0-11-4.9-11-11s4.9-11 11-11 11 4.9 11 11-4.9 11-11 11zM108 108H89.1V78.4c0-4.7 0-10.7-6.4-10.7-6.4 0-7.4 5-7.4 10.3V108H58.3V47.2h18.2v5.4h2.6c2.6-4.9 8.9-6.4 13.8-6.4 14.8 0 17.5 9.7 17.5 22.3V108z" 
          fill="#0077B5"/>
</svg> 